<mxfile host="app.diagrams.net" agent="Mozilla/5.0 (Windows NT 10.0; Win64; x64) AppleWebKit/537.36 (KHTML, like Gecko) Chrome/122.0.0.0 Safari/537.36" version="24.7.12">
  <diagram name="Trang-1" id="_TlHrqpHjL3kbF4xAXuK">
    <mxGraphModel dx="1050" dy="557" grid="1" gridSize="10" guides="1" tooltips="1" connect="1" arrows="1" fold="1" page="1" pageScale="1" pageWidth="827" pageHeight="1169" math="0" shadow="0">
      <root>
        <mxCell id="0" />
        <mxCell id="1" parent="0" />
        <mxCell id="41snGLeXf_g5PtqU1dur-1" value="Khách hàng" style="shape=umlActor;verticalLabelPosition=bottom;verticalAlign=top;html=1;outlineConnect=0;" vertex="1" parent="1">
          <mxGeometry x="120" y="130" width="30" height="60" as="geometry" />
        </mxCell>
        <mxCell id="41snGLeXf_g5PtqU1dur-2" value="Cửa hàng" style="shape=umlActor;verticalLabelPosition=bottom;verticalAlign=top;html=1;outlineConnect=0;" vertex="1" parent="1">
          <mxGeometry x="630" y="130" width="30" height="60" as="geometry" />
        </mxCell>
        <mxCell id="41snGLeXf_g5PtqU1dur-5" value="Nhận xét" style="ellipse;whiteSpace=wrap;html=1;" vertex="1" parent="1">
          <mxGeometry x="230" y="120" width="120" height="50" as="geometry" />
        </mxCell>
        <mxCell id="41snGLeXf_g5PtqU1dur-6" value="Đánh giá" style="ellipse;whiteSpace=wrap;html=1;" vertex="1" parent="1">
          <mxGeometry x="230" y="190" width="120" height="50" as="geometry" />
        </mxCell>
        <mxCell id="41snGLeXf_g5PtqU1dur-8" value="Giải đáp thắc mắc" style="ellipse;whiteSpace=wrap;html=1;" vertex="1" parent="1">
          <mxGeometry x="430" y="150" width="120" height="50" as="geometry" />
        </mxCell>
        <mxCell id="41snGLeXf_g5PtqU1dur-9" value="" style="endArrow=classic;html=1;rounded=0;exitX=1;exitY=0.3333333333333333;exitDx=0;exitDy=0;exitPerimeter=0;entryX=0;entryY=0.5;entryDx=0;entryDy=0;" edge="1" parent="1" source="41snGLeXf_g5PtqU1dur-1" target="41snGLeXf_g5PtqU1dur-5">
          <mxGeometry width="50" height="50" relative="1" as="geometry">
            <mxPoint x="170" y="370" as="sourcePoint" />
            <mxPoint x="220" y="320" as="targetPoint" />
          </mxGeometry>
        </mxCell>
        <mxCell id="41snGLeXf_g5PtqU1dur-10" value="" style="endArrow=classic;html=1;rounded=0;exitX=1;exitY=0.3333333333333333;exitDx=0;exitDy=0;exitPerimeter=0;entryX=0.02;entryY=0.284;entryDx=0;entryDy=0;entryPerimeter=0;" edge="1" parent="1" source="41snGLeXf_g5PtqU1dur-1" target="41snGLeXf_g5PtqU1dur-6">
          <mxGeometry width="50" height="50" relative="1" as="geometry">
            <mxPoint x="160" y="160" as="sourcePoint" />
            <mxPoint x="240" y="155" as="targetPoint" />
          </mxGeometry>
        </mxCell>
        <mxCell id="41snGLeXf_g5PtqU1dur-11" value="" style="endArrow=classic;html=1;rounded=0;exitX=0;exitY=0.3333333333333333;exitDx=0;exitDy=0;exitPerimeter=0;entryX=0.913;entryY=0.204;entryDx=0;entryDy=0;entryPerimeter=0;" edge="1" parent="1" source="41snGLeXf_g5PtqU1dur-2" target="41snGLeXf_g5PtqU1dur-8">
          <mxGeometry width="50" height="50" relative="1" as="geometry">
            <mxPoint x="160" y="160" as="sourcePoint" />
            <mxPoint x="242" y="214" as="targetPoint" />
          </mxGeometry>
        </mxCell>
        <mxCell id="41snGLeXf_g5PtqU1dur-14" value="include" style="endArrow=open;endSize=12;dashed=1;html=1;rounded=0;exitX=0;exitY=0.5;exitDx=0;exitDy=0;entryX=1;entryY=0.5;entryDx=0;entryDy=0;" edge="1" parent="1" source="41snGLeXf_g5PtqU1dur-8" target="41snGLeXf_g5PtqU1dur-5">
          <mxGeometry width="160" relative="1" as="geometry">
            <mxPoint x="630" y="350" as="sourcePoint" />
            <mxPoint x="790" y="350" as="targetPoint" />
          </mxGeometry>
        </mxCell>
      </root>
    </mxGraphModel>
  </diagram>
</mxfile>
